<?xml version="1.0" standalone="no"?>
<!DOCTYPE svg PUBLIC "-//W3C//DTD SVG 20010904//EN"
 "http://www.w3.org/TR/2001/REC-SVG-20010904/DTD/svg10.dtd">
<svg version="1.0" xmlns="http://www.w3.org/2000/svg"
 width="500.000000pt" height="500.000000pt" viewBox="0 0 500.000000 500.000000"
 preserveAspectRatio="xMidYMid meet">

<g transform="translate(0.000000,500.000000) scale(0.100000,-0.100000)"
fill="#000000" stroke="none">
<path d="M3878 2995 c-144 -27 -275 -88 -367 -171 -46 -41 -121 -133 -121
-148 0 -3 31 -6 69 -6 l68 0 39 66 c49 83 117 145 208 189 128 61 279 70 403
23 78 -29 172 -122 214 -212 50 -107 58 -87 36 93 -12 93 -13 95 -46 115 -97
56 -343 81 -503 51z"/>
<path d="M450 2979 c0 -4 25 -11 56 -15 36 -4 65 -15 82 -29 25 -21 26 -28 30
-144 l4 -121 69 0 69 0 0 116 c0 113 1 116 28 143 21 21 41 30 85 35 114 15
52 22 -183 22 -132 0 -240 -3 -240 -7z"/>
<path d="M1310 2979 c0 -4 26 -10 58 -14 104 -12 122 -42 122 -203 l0 -93 68
3 67 3 5 123 c6 146 12 156 110 167 118 14 56 21 -185 21 -135 0 -245 -3 -245
-7z"/>
<path d="M1930 2979 c0 -4 25 -11 55 -14 31 -4 65 -15 76 -24 27 -21 38 -77
39 -184 l0 -88 68 3 67 3 5 113 c5 109 6 115 32 137 35 30 95 39 213 33 81 -4
104 -10 168 -40 85 -41 169 -118 213 -197 l29 -51 78 0 c42 0 77 3 77 6 0 3
-13 25 -29 48 -70 101 -197 188 -346 237 -67 22 -85 23 -407 24 -186 1 -338
-2 -338 -6z"/>
<path d="M2426 2598 c-18 -28 -36 -113 -36 -173 0 -35 -4 -44 -25 -53 -39 -18
-96 -14 -140 8 -49 25 -58 25 -43 0 15 -23 2 -53 -26 -58 -26 -5 -20 39 13 84
71 97 104 194 69 202 -35 7 -117 -167 -118 -248 0 -64 48 -82 78 -30 11 19 22
28 32 24 41 -15 108 -16 138 0 31 16 31 16 47 -14 26 -50 95 -52 166 -5 36 23
37 23 42 5 7 -26 35 -36 58 -22 10 7 38 12 63 12 24 0 60 7 80 15 35 15 36 14
36 -5 0 -31 30 -37 52 -11 28 36 22 1 -7 -39 -51 -70 -68 -150 -31 -150 20 0
41 42 62 123 20 80 50 115 84 97 26 -14 83 -5 100 15 10 12 9 15 -3 15 -9 0
-19 -5 -23 -11 -4 -7 -21 -8 -43 -5 -50 9 -64 10 -81 5 -11 -3 -15 4 -15 24 1
37 -18 35 -83 -10 -41 -28 -66 -38 -108 -41 -50 -4 -54 -3 -54 17 0 13 -9 26
-24 32 -20 9 -32 5 -90 -35 -75 -52 -129 -61 -159 -28 -23 25 -21 50 9 118 32
72 38 156 12 162 -9 2 -24 -7 -32 -20z m33 -54 c-15 -59 -37 -114 -46 -114
-11 0 5 105 21 145 24 56 41 34 25 -31z m-228 5 c-13 -37 -71 -132 -78 -126
-2 3 6 29 17 60 32 86 90 148 61 66z m688 -179 c-24 -42 -39 -51 -39 -23 0 18
37 63 52 63 5 0 -1 -18 -13 -40z m-243 -5 c0 -27 -3 -35 -18 -35 -23 0 -24 27
-1 52 9 10 17 18 17 18 1 0 1 -16 2 -35z m221 -167 c-18 -38 -26 -46 -26 -31
-1 29 43 121 47 99 2 -9 -8 -39 -21 -68z"/>
<path d="M618 2014 l-3 -166 -27 -23 c-18 -15 -47 -26 -83 -30 -118 -15 -45
-25 185 -25 231 0 306 10 181 24 -104 12 -105 15 -109 215 l-3 171 -69 0 -68
0 -4 -166z"/>
<path d="M1488 2014 l-3 -166 -27 -23 c-20 -17 -46 -26 -88 -31 -126 -14 -51
-24 185 -24 236 0 311 10 184 24 -45 5 -67 14 -85 31 -23 23 -24 28 -24 190
l0 165 -69 0 -69 0 -4 -166z"/>
<path d="M2100 2048 c-1 -211 -14 -241 -115 -253 -115 -15 -47 -25 178 -27
127 -2 273 -2 324 -1 161 3 312 59 430 159 53 46 129 150 156 217 l16 37 -74
0 -73 0 -13 -37 c-72 -223 -239 -345 -474 -347 -120 -1 -169 13 -196 58 -16
27 -19 51 -19 179 l0 147 -70 0 -70 0 0 -132z"/>
<path d="M3350 2173 c0 -5 14 -35 30 -67 93 -182 251 -297 470 -342 67 -13
115 -16 230 -11 129 5 353 36 368 52 3 3 6 89 6 190 l1 185 -83 0 c-81 0 -82
-1 -72 -21 7 -11 12 -69 12 -129 0 -95 -3 -115 -23 -157 -29 -59 -67 -81 -150
-91 -257 -29 -475 87 -582 310 l-42 87 -82 1 c-46 0 -83 -3 -83 -7z"/>
</g>
</svg>
